<svg width="627" height="134" viewBox="0 0 627 134" fill="none" xmlns="http://www.w3.org/2000/svg">
<path d="M180.523 105.26C175.483 105.26 170.933 104.105 166.873 101.795C162.883 99.415 159.698 96.16 157.318 92.03C155.008 87.83 153.853 83.035 153.853 77.645C153.853 72.115 155.008 67.285 157.318 63.155C159.698 58.955 162.918 55.7 166.978 53.39C171.038 51.01 175.588 49.82 180.628 49.82C185.738 49.82 190.288 51.01 194.278 53.39C198.338 55.7 201.523 58.955 203.833 63.155C206.213 67.285 207.403 72.08 207.403 77.54C207.403 83 206.213 87.83 203.833 92.03C201.523 96.16 198.338 99.415 194.278 101.795C190.218 104.105 185.633 105.26 180.523 105.26ZM180.523 92.975C182.903 92.975 185.003 92.415 186.823 91.295C188.713 90.175 190.183 88.46 191.233 86.15C192.353 83.84 192.913 80.97 192.913 77.54C192.913 74.11 192.353 71.275 191.233 69.035C190.183 66.725 188.713 65.01 186.823 63.89C185.003 62.7 182.938 62.105 180.628 62.105C178.388 62.105 176.323 62.7 174.433 63.89C172.543 65.01 171.038 66.725 169.918 69.035C168.868 71.275 168.343 74.11 168.343 77.54C168.343 80.97 168.868 83.84 169.918 86.15C171.038 88.46 172.508 90.175 174.328 91.295C176.218 92.415 178.283 92.975 180.523 92.975ZM219.619 104V28.4H233.794V104H219.619ZM265.463 105.26C261.053 105.26 257.413 104.56 254.543 103.16C251.673 101.69 249.538 99.765 248.138 97.385C246.808 94.935 246.143 92.24 246.143 89.3C246.143 86.08 246.948 83.245 248.558 80.795C250.238 78.345 252.723 76.42 256.013 75.02C259.373 73.62 263.573 72.92 268.613 72.92H281.738C281.738 70.33 281.388 68.195 280.688 66.515C279.988 64.765 278.903 63.47 277.433 62.63C275.963 61.79 274.003 61.37 271.553 61.37C268.893 61.37 266.618 61.965 264.728 63.155C262.908 64.275 261.788 66.025 261.368 68.405H247.613C247.963 64.625 249.188 61.37 251.288 58.64C253.458 55.84 256.293 53.67 259.793 52.13C263.363 50.59 267.318 49.82 271.658 49.82C276.628 49.82 280.933 50.66 284.573 52.34C288.213 54.02 291.013 56.435 292.973 59.585C294.933 62.735 295.913 66.62 295.913 71.24V104H283.943L282.368 95.915C281.598 97.315 280.688 98.575 279.638 99.695C278.588 100.815 277.363 101.795 275.963 102.635C274.563 103.475 272.988 104.105 271.238 104.525C269.488 105.015 267.563 105.26 265.463 105.26ZM268.823 94.34C270.643 94.34 272.253 94.025 273.653 93.395C275.123 92.695 276.383 91.785 277.433 90.665C278.483 89.475 279.288 88.145 279.848 86.675C280.478 85.135 280.898 83.49 281.108 81.74V81.635H270.293C268.123 81.635 266.338 81.915 264.938 82.475C263.608 82.965 262.628 83.7 261.998 84.68C261.368 85.66 261.053 86.78 261.053 88.04C261.053 89.44 261.368 90.595 261.998 91.505C262.628 92.415 263.538 93.115 264.728 93.605C265.918 94.095 267.283 94.34 268.823 94.34ZM340.426 105.26C337.696 105.26 335.246 104.91 333.076 104.21C330.976 103.51 329.086 102.565 327.406 101.375C325.796 100.115 324.431 98.715 323.311 97.175L321.736 104H309.136V28.4H323.311V58.43C324.991 55.98 327.196 53.95 329.926 52.34C332.726 50.66 336.191 49.82 340.321 49.82C345.221 49.82 349.561 51.045 353.341 53.495C357.191 55.875 360.201 59.165 362.371 63.365C364.611 67.495 365.731 72.255 365.731 77.645C365.731 82.895 364.611 87.62 362.371 91.82C360.201 96.02 357.226 99.31 353.446 101.69C349.666 104.07 345.326 105.26 340.426 105.26ZM337.066 92.87C339.866 92.87 342.316 92.24 344.416 90.98C346.586 89.65 348.266 87.865 349.456 85.625C350.646 83.315 351.241 80.655 351.241 77.645C351.241 74.635 350.646 71.975 349.456 69.665C348.266 67.285 346.586 65.465 344.416 64.205C342.316 62.875 339.866 62.21 337.066 62.21C334.336 62.21 331.886 62.875 329.716 64.205C327.616 65.465 325.936 67.25 324.676 69.56C323.486 71.87 322.891 74.53 322.891 77.54C322.891 80.55 323.486 83.245 324.676 85.625C325.936 87.935 327.616 89.72 329.716 90.98C331.886 92.24 334.336 92.87 337.066 92.87ZM402.93 105.26C397.89 105.26 393.34 104.105 389.28 101.795C385.29 99.415 382.105 96.16 379.725 92.03C377.415 87.83 376.26 83.035 376.26 77.645C376.26 72.115 377.415 67.285 379.725 63.155C382.105 58.955 385.325 55.7 389.385 53.39C393.445 51.01 397.995 49.82 403.035 49.82C408.145 49.82 412.695 51.01 416.685 53.39C420.745 55.7 423.93 58.955 426.24 63.155C428.62 67.285 429.81 72.08 429.81 77.54C429.81 83 428.62 87.83 426.24 92.03C423.93 96.16 420.745 99.415 416.685 101.795C412.625 104.105 408.04 105.26 402.93 105.26ZM402.93 92.975C405.31 92.975 407.41 92.415 409.23 91.295C411.12 90.175 412.59 88.46 413.64 86.15C414.76 83.84 415.32 80.97 415.32 77.54C415.32 74.11 414.76 71.275 413.64 69.035C412.59 66.725 411.12 65.01 409.23 63.89C407.41 62.7 405.345 62.105 403.035 62.105C400.795 62.105 398.73 62.7 396.84 63.89C394.95 65.01 393.445 66.725 392.325 69.035C391.275 71.275 390.75 74.11 390.75 77.54C390.75 80.97 391.275 83.84 392.325 86.15C393.445 88.46 394.915 90.175 396.735 91.295C398.625 92.415 400.69 92.975 402.93 92.975ZM442.027 104V51.08H454.627L455.992 60.845C457.252 58.535 458.827 56.575 460.717 54.965C462.677 53.355 464.882 52.095 467.332 51.185C469.852 50.275 472.617 49.82 475.627 49.82V64.835H470.797C468.697 64.835 466.737 65.08 464.917 65.57C463.167 66.06 461.627 66.865 460.297 67.985C458.967 69.035 457.952 70.505 457.252 72.395C456.552 74.285 456.202 76.665 456.202 79.535V104H442.027ZM485.306 104V51.08H499.481V104H485.306ZM492.446 43.835C489.926 43.835 487.826 43.1 486.146 41.63C484.536 40.09 483.731 38.165 483.731 35.855C483.731 33.545 484.536 31.655 486.146 30.185C487.826 28.645 489.926 27.875 492.446 27.875C495.036 27.875 497.136 28.645 498.746 30.185C500.426 31.655 501.266 33.545 501.266 35.855C501.266 38.165 500.426 40.09 498.746 41.63C497.136 43.1 495.036 43.835 492.446 43.835ZM531.654 105.26C527.244 105.26 523.604 104.56 520.734 103.16C517.864 101.69 515.729 99.765 514.329 97.385C512.999 94.935 512.334 92.24 512.334 89.3C512.334 86.08 513.139 83.245 514.749 80.795C516.429 78.345 518.914 76.42 522.204 75.02C525.564 73.62 529.764 72.92 534.804 72.92H547.929C547.929 70.33 547.579 68.195 546.879 66.515C546.179 64.765 545.094 63.47 543.624 62.63C542.154 61.79 540.194 61.37 537.744 61.37C535.084 61.37 532.809 61.965 530.919 63.155C529.099 64.275 527.979 66.025 527.559 68.405H513.804C514.154 64.625 515.379 61.37 517.479 58.64C519.649 55.84 522.484 53.67 525.984 52.13C529.554 50.59 533.509 49.82 537.849 49.82C542.819 49.82 547.124 50.66 550.764 52.34C554.404 54.02 557.204 56.435 559.164 59.585C561.124 62.735 562.104 66.62 562.104 71.24V104H550.134L548.559 95.915C547.789 97.315 546.879 98.575 545.829 99.695C544.779 100.815 543.554 101.795 542.154 102.635C540.754 103.475 539.179 104.105 537.429 104.525C535.679 105.015 533.754 105.26 531.654 105.26ZM535.014 94.34C536.834 94.34 538.444 94.025 539.844 93.395C541.314 92.695 542.574 91.785 543.624 90.665C544.674 89.475 545.479 88.145 546.039 86.675C546.669 85.135 547.089 83.49 547.299 81.74V81.635H536.484C534.314 81.635 532.529 81.915 531.129 82.475C529.799 82.965 528.819 83.7 528.189 84.68C527.559 85.66 527.244 86.78 527.244 88.04C527.244 89.44 527.559 90.595 528.189 91.505C528.819 92.415 529.729 93.115 530.919 93.605C532.109 94.095 533.474 94.34 535.014 94.34Z" fill="#1E9BC9"/>
<rect width="137.314" height="126" rx="18" fill="#1E9BC9"/>
<path d="M47.6306 96.6286V27.3286H60.9956V54.7516L86.0426 27.3286H102.477L77.0336 54.7516L103.269 96.6286H86.9336L67.4306 65.1466L60.9956 72.0766V96.6286H47.6306Z" fill="white"/>
<path d="M402.815 73.2098C402.815 72.4454 402.815 71.6811 411.797 63.0705C420.778 54.46 438.74 38.0263 457.247 21.0947" stroke="#121313" stroke-width="2" stroke-linecap="round"/>
</svg>
